<svg width="46" height="46" viewBox="0 0 46 46" fill="none" xmlns="http://www.w3.org/2000/svg">
<circle cx="23" cy="23" r="23" fill="#F2F6FF"/>
<path d="M18.2273 30.3158C18.7796 30.3158 19.2273 29.8681 19.2273 29.3158C19.2273 28.7635 18.7796 28.3158 18.2273 28.3158V30.3158ZM17.5455 21.2632V22.2632H18.5455V21.2632H17.5455ZM28.4545 21.2632H27.4545V22.2632H28.4545V21.2632ZM27.7727 28.3158C27.2204 28.3158 26.7727 28.7635 26.7727 29.3158C26.7727 29.8681 27.2204 30.3158 27.7727 30.3158V28.3158ZM22 32C22 32.5523 22.4477 33 23 33C23.5523 33 24 32.5523 24 32H22ZM24 23.9474C24 23.3951 23.5523 22.9474 23 22.9474C22.4477 22.9474 22 23.3951 22 23.9474H24ZM23.7015 24.6601C24.0951 24.2727 24.1001 23.6395 23.7127 23.2459C23.3253 22.8523 22.6922 22.8473 22.2985 23.2347L23.7015 24.6601ZM19.5713 25.9189C19.1777 26.3063 19.1726 26.9394 19.56 27.333C19.9474 27.7267 20.5806 27.7317 20.9742 27.3443L19.5713 25.9189ZM23.7015 23.2347C23.3078 22.8473 22.6747 22.8523 22.2873 23.2459C21.8999 23.6395 21.9049 24.2727 22.2985 24.6601L23.7015 23.2347ZM25.0258 27.3443C25.4194 27.7317 26.0526 27.7267 26.44 27.333C26.8274 26.9394 26.8223 26.3063 26.4287 25.9189L25.0258 27.3443ZM18.2273 28.3158H17.0909V30.3158H18.2273V28.3158ZM17.0909 28.3158C15.3688 28.3158 14 26.9459 14 25.2895H12C12 28.0804 14.2943 30.3158 17.0909 30.3158V28.3158ZM14 25.2895C14 23.633 15.3688 22.2632 17.0909 22.2632V20.2632C14.2943 20.2632 12 22.4986 12 25.2895H14ZM17.0909 22.2632H17.5455V20.2632H17.0909V22.2632ZM18.5455 21.2632V20.3684H16.5455V21.2632H18.5455ZM18.5455 20.3684C18.5455 17.9708 20.5248 16 23 16V14C19.4503 14 16.5455 16.8363 16.5455 20.3684H18.5455ZM23 16C25.4752 16 27.4545 17.9708 27.4545 20.3684H29.4545C29.4545 16.8363 26.5497 14 23 14V16ZM27.4545 20.3684V21.2632H29.4545V20.3684H27.4545ZM28.4545 22.2632H28.9091V20.2632H28.4545V22.2632ZM28.9091 22.2632C30.6312 22.2632 32 23.633 32 25.2895H34C34 22.4986 31.7057 20.2632 28.9091 20.2632V22.2632ZM32 25.2895C32 26.9459 30.6312 28.3158 28.9091 28.3158V30.3158C31.7057 30.3158 34 28.0804 34 25.2895H32ZM28.9091 28.3158H27.7727V30.3158H28.9091V28.3158ZM24 32V23.9474H22V32H24ZM22.2985 23.2347L19.5713 25.9189L20.9742 27.3443L23.7015 24.6601L22.2985 23.2347ZM22.2985 24.6601L25.0258 27.3443L26.4287 25.9189L23.7015 23.2347L22.2985 24.6601Z" fill="#234CAD"/>
</svg>
