<svg width="51" height="51" viewBox="0 0 51 51" fill="none" xmlns="http://www.w3.org/2000/svg">
<circle cx="25.2916" cy="25.782" r="25" fill="#F2F6FF"/>
<path d="M20.5189 33.0978C21.0712 33.0978 21.5189 32.6501 21.5189 32.0978C21.5189 31.5455 21.0712 31.0978 20.5189 31.0978V33.0978ZM19.8371 24.0451V25.0451H20.8371V24.0451H19.8371ZM30.7462 24.0451H29.7462V25.0451H30.7462V24.0451ZM30.0644 31.0978C29.5121 31.0978 29.0644 31.5455 29.0644 32.0978C29.0644 32.6501 29.5121 33.0978 30.0644 33.0978V31.0978ZM24.2916 34.782C24.2916 35.3343 24.7393 35.782 25.2916 35.782C25.8439 35.782 26.2916 35.3343 26.2916 34.782H24.2916ZM26.2916 26.7294C26.2916 26.1771 25.8439 25.7294 25.2916 25.7294C24.7393 25.7294 24.2916 26.1771 24.2916 26.7294H26.2916ZM25.9931 27.4421C26.3867 27.0547 26.3917 26.4215 26.0043 26.0279C25.6169 25.6343 24.9838 25.6292 24.5902 26.0166L25.9931 27.4421ZM21.8629 28.7009C21.4693 29.0883 21.4642 29.7214 21.8516 30.115C22.239 30.5086 22.8722 30.5137 23.2658 30.1263L21.8629 28.7009ZM25.9931 26.0166C25.5995 25.6292 24.9663 25.6343 24.5789 26.0279C24.1915 26.4215 24.1965 27.0547 24.5902 27.4421L25.9931 26.0166ZM27.3174 30.1263C27.7111 30.5137 28.3442 30.5086 28.7316 30.115C29.119 29.7214 29.114 29.0883 28.7204 28.7009L27.3174 30.1263ZM20.5189 31.0978H19.3825V33.0978H20.5189V31.0978ZM19.3825 31.0978C17.6604 31.0978 16.2916 29.7279 16.2916 28.0715H14.2916C14.2916 30.8624 16.586 33.0978 19.3825 33.0978V31.0978ZM16.2916 28.0715C16.2916 26.415 17.6604 25.0451 19.3825 25.0451V23.0451C16.586 23.0451 14.2916 25.2805 14.2916 28.0715H16.2916ZM19.3825 25.0451H19.8371V23.0451H19.3825V25.0451ZM20.8371 24.0451V23.1504H18.8371V24.0451H20.8371ZM20.8371 23.1504C20.8371 20.7527 22.8164 18.782 25.2916 18.782V16.782C21.7419 16.782 18.8371 19.6183 18.8371 23.1504H20.8371ZM25.2916 18.782C27.7669 18.782 29.7462 20.7527 29.7462 23.1504H31.7462C31.7462 19.6183 28.8413 16.782 25.2916 16.782V18.782ZM29.7462 23.1504V24.0451H31.7462V23.1504H29.7462ZM30.7462 25.0451H31.2007V23.0451H30.7462V25.0451ZM31.2007 25.0451C32.9229 25.0451 34.2916 26.415 34.2916 28.0715H36.2916C36.2916 25.2805 33.9973 23.0451 31.2007 23.0451V25.0451ZM34.2916 28.0715C34.2916 29.7279 32.9229 31.0978 31.2007 31.0978V33.0978C33.9973 33.0978 36.2916 30.8624 36.2916 28.0715H34.2916ZM31.2007 31.0978H30.0644V33.0978H31.2007V31.0978ZM26.2916 34.782V26.7294H24.2916V34.782H26.2916ZM24.5902 26.0166L21.8629 28.7009L23.2658 30.1263L25.9931 27.4421L24.5902 26.0166ZM24.5902 27.4421L27.3174 30.1263L28.7204 28.7009L25.9931 26.0166L24.5902 27.4421Z" fill="#234CAD"/>
</svg>
