<svg width="40" height="40" viewBox="0 0 40 40" fill="none" xmlns="http://www.w3.org/2000/svg">
<g clip-path="url(#clip0_8810_160)">
<circle cx="20" cy="20" r="19" fill="#F2F6FF" stroke="white" stroke-width="2"/>
<path d="M19 19.7C19.1267 19.7 19.23 19.7433 19.31 19.83C19.3967 19.91 19.44 20.0133 19.44 20.14C19.44 20.2667 19.3967 20.3733 19.31 20.46C19.23 20.54 19.1267 20.58 19 20.58H17.44V22.13C17.44 22.2567 17.3967 22.3633 17.31 22.45C17.23 22.5367 17.1267 22.58 17 22.58C16.8733 22.58 16.7667 22.5367 16.68 22.45C16.6 22.3633 16.56 22.2567 16.56 22.13V20.58H15C14.8733 20.58 14.7667 20.54 14.68 20.46C14.6 20.3733 14.56 20.2667 14.56 20.14C14.56 20.0133 14.6 19.91 14.68 19.83C14.7667 19.7433 14.8733 19.7 15 19.7H16.56V18.14C16.56 18.0133 16.6 17.91 16.68 17.83C16.7667 17.7433 16.8733 17.7 17 17.7C17.1267 17.7 17.23 17.7433 17.31 17.83C17.3967 17.91 17.44 18.0133 17.44 18.14V19.7H19ZM24.0761 19.38C24.4961 19.4867 24.8161 19.69 25.0361 19.99C25.2628 20.2833 25.3761 20.65 25.3761 21.09C25.3761 21.6967 25.1528 22.18 24.7061 22.54C24.2594 22.9 23.6561 23.08 22.8961 23.08C22.4628 23.08 22.0461 23.0133 21.6461 22.88C21.2461 22.7467 20.9061 22.56 20.6261 22.32C20.4728 22.1867 20.3961 22.03 20.3961 21.85C20.3961 21.7033 20.4361 21.58 20.5161 21.48C20.6028 21.3733 20.7028 21.32 20.8161 21.32C20.8828 21.32 20.9428 21.3333 20.9961 21.36C21.0494 21.38 21.1228 21.4167 21.2161 21.47C21.4961 21.6567 21.7628 21.8 22.0161 21.9C22.2694 22 22.5461 22.05 22.8461 22.05C23.2861 22.05 23.6128 21.9633 23.8261 21.79C24.0394 21.61 24.1461 21.34 24.1461 20.98C24.1461 20.6267 24.0328 20.3667 23.8061 20.2C23.5861 20.0267 23.2428 19.94 22.7761 19.94H22.2061C22.0528 19.94 21.9328 19.89 21.8461 19.79C21.7661 19.6833 21.7261 19.5633 21.7261 19.43C21.7261 19.29 21.7661 19.17 21.8461 19.07C21.9328 18.97 22.0528 18.92 22.2061 18.92H22.6061C23.5194 18.92 23.9761 18.5767 23.9761 17.89C23.9761 17.57 23.8794 17.3233 23.6861 17.15C23.4928 16.9767 23.2261 16.89 22.8861 16.89C22.3994 16.89 21.8794 17.0833 21.3261 17.47C21.2328 17.5233 21.1594 17.5633 21.1061 17.59C21.0528 17.61 20.9928 17.62 20.9261 17.62C20.8128 17.62 20.7128 17.57 20.6261 17.47C20.5461 17.3633 20.5061 17.2367 20.5061 17.09C20.5061 16.99 20.5228 16.9067 20.5561 16.84C20.5961 16.7667 20.6561 16.6933 20.7361 16.62C21.0161 16.3867 21.3494 16.2033 21.7361 16.07C22.1294 15.93 22.5294 15.86 22.9361 15.86C23.6294 15.86 24.1794 16.03 24.5861 16.37C24.9994 16.71 25.2061 17.1633 25.2061 17.73C25.1994 18.1167 25.0961 18.4567 24.8961 18.75C24.7028 19.0367 24.4294 19.2467 24.0761 19.38Z" fill="#234CAD"/>
</g>
<defs>
<clipPath id="clip0_8810_160">
<rect width="40" height="40" fill="white"/>
</clipPath>
</defs>
</svg>
