<svg width="60" height="60" viewBox="0 0 60 60" fill="none" xmlns="http://www.w3.org/2000/svg">
<g clip-path="url(#clip0_8756_98)">
<circle cx="30" cy="30" r="30" fill="#F2F6FF"/>
<path d="M23.76 36.162C22.836 36.162 21.96 36.042 21.132 35.802C20.316 35.55 19.65 35.214 19.134 34.794C18.858 34.59 18.72 34.302 18.72 33.93C18.72 33.678 18.792 33.462 18.936 33.282C19.092 33.09 19.272 32.994 19.476 32.994C19.692 32.994 19.938 33.078 20.214 33.246C20.73 33.618 21.27 33.888 21.834 34.056C22.398 34.224 23.022 34.308 23.706 34.308C24.582 34.308 25.254 34.158 25.722 33.858C26.19 33.546 26.424 33.096 26.424 32.508C26.424 32.052 26.202 31.704 25.758 31.464C25.326 31.212 24.6 30.972 23.58 30.744C22.524 30.516 21.666 30.252 21.006 29.952C20.346 29.652 19.848 29.268 19.512 28.8C19.176 28.332 19.008 27.738 19.008 27.018C19.008 26.274 19.218 25.608 19.638 25.02C20.058 24.432 20.64 23.976 21.384 23.652C22.14 23.316 22.986 23.148 23.922 23.148C25.638 23.148 27.036 23.604 28.116 24.516C28.272 24.648 28.38 24.78 28.44 24.912C28.512 25.032 28.548 25.188 28.548 25.38C28.548 25.632 28.47 25.854 28.314 26.046C28.17 26.226 27.996 26.316 27.792 26.316C27.672 26.316 27.558 26.298 27.45 26.262C27.354 26.226 27.222 26.16 27.054 26.064C26.562 25.704 26.082 25.44 25.614 25.272C25.158 25.092 24.594 25.002 23.922 25.002C23.106 25.002 22.458 25.17 21.978 25.506C21.51 25.83 21.276 26.286 21.276 26.874C21.276 27.366 21.486 27.744 21.906 28.008C22.326 28.272 23.04 28.518 24.048 28.746C25.116 28.986 25.98 29.256 26.64 29.556C27.312 29.844 27.822 30.216 28.17 30.672C28.53 31.128 28.71 31.698 28.71 32.382C28.71 33.126 28.5 33.786 28.08 34.362C27.672 34.926 27.09 35.37 26.334 35.694C25.59 36.006 24.732 36.162 23.76 36.162ZM38.6585 29.448C39.3905 29.652 39.9545 30.024 40.3505 30.564C40.7585 31.104 40.9625 31.764 40.9625 32.544C40.9625 33.624 40.5725 34.47 39.7925 35.082C39.0245 35.694 37.9625 36 36.6065 36H31.9625C31.6145 36 31.3385 35.904 31.1345 35.712C30.9425 35.52 30.8465 35.25 30.8465 34.902V24.408C30.8465 24.06 30.9425 23.79 31.1345 23.598C31.3385 23.406 31.6145 23.31 31.9625 23.31H36.4265C37.7465 23.31 38.7785 23.604 39.5225 24.192C40.2785 24.768 40.6565 25.578 40.6565 26.622C40.6565 27.294 40.4765 27.876 40.1165 28.368C39.7685 28.86 39.2825 29.22 38.6585 29.448ZM33.1145 28.656H36.0485C37.6445 28.656 38.4425 28.062 38.4425 26.874C38.4425 26.274 38.2445 25.83 37.8485 25.542C37.4525 25.254 36.8525 25.11 36.0485 25.11H33.1145V28.656ZM36.3545 34.2C37.1945 34.2 37.8065 34.05 38.1905 33.75C38.5745 33.45 38.7665 32.982 38.7665 32.346C38.7665 31.71 38.5685 31.236 38.1725 30.924C37.7885 30.612 37.1825 30.456 36.3545 30.456H33.1145V34.2H36.3545Z" fill="#234CAD"/>
</g>
<defs>
<clipPath id="clip0_8756_98">
<rect width="60" height="60" fill="white"/>
</clipPath>
</defs>
</svg>
