<svg width="40" height="40" viewBox="0 0 40 40" fill="none" xmlns="http://www.w3.org/2000/svg">
<g clip-path="url(#clip0_8810_157)">
<circle cx="20" cy="20" r="19" fill="#F2F6FF" stroke="white" stroke-width="2"/>
<path d="M18.9 23.09C18.2133 23.09 17.6167 22.9433 17.11 22.65C16.61 22.3567 16.2233 21.9367 15.95 21.39C15.6767 20.8433 15.54 20.2033 15.54 19.47C15.54 18.7367 15.6733 18.1 15.94 17.56C16.2133 17.0133 16.6033 16.5933 17.11 16.3C17.6167 16.0067 18.2133 15.86 18.9 15.86C19.5867 15.86 20.18 16.0067 20.68 16.3C21.1867 16.5933 21.5733 17.0133 21.84 17.56C22.1133 18.1 22.25 18.7367 22.25 19.47C22.25 20.2033 22.1133 20.8433 21.84 21.39C21.5667 21.9367 21.1767 22.3567 20.67 22.65C20.17 22.9433 19.58 23.09 18.9 23.09ZM18.9 22.06C19.5467 22.06 20.05 21.8367 20.41 21.39C20.7767 20.9433 20.96 20.3033 20.96 19.47C20.96 18.6367 20.7767 18 20.41 17.56C20.05 17.1133 19.5467 16.89 18.9 16.89C18.2467 16.89 17.7367 17.1133 17.37 17.56C17.01 18 16.83 18.6367 16.83 19.47C16.83 20.3033 17.01 20.9433 17.37 21.39C17.7367 21.8367 18.2467 22.06 18.9 22.06ZM24.193 23.06C23.9996 23.06 23.843 23 23.723 22.88C23.6096 22.76 23.553 22.6033 23.553 22.41V16.54C23.553 16.3467 23.6096 16.1933 23.723 16.08C23.843 15.96 23.9996 15.9 24.193 15.9C24.393 15.9 24.5496 15.96 24.663 16.08C24.783 16.1933 24.843 16.3467 24.843 16.54V22.41C24.843 22.6033 24.783 22.76 24.663 22.88C24.5496 23 24.393 23.06 24.193 23.06Z" fill="#234CAD"/>
</g>
<defs>
<clipPath id="clip0_8810_157">
<rect width="40" height="40" fill="white"/>
</clipPath>
</defs>
</svg>
