<svg width="40" height="40" viewBox="0 0 40 40" fill="none" xmlns="http://www.w3.org/2000/svg">
<g clip-path="url(#clip0_8810_151)">
<circle cx="20" cy="20" r="19" fill="#F2F6FF" stroke="white" stroke-width="2"/>
<path d="M19.23 22.03C19.3633 22.1567 19.43 22.3 19.43 22.46C19.43 22.6133 19.37 22.75 19.25 22.87C19.1367 22.9833 19 23.04 18.84 23.04C18.6733 23.04 18.52 22.97 18.38 22.83L15.05 19.71V22.41C15.05 22.6033 14.99 22.76 14.87 22.88C14.7567 23 14.6 23.06 14.4 23.06C14.2067 23.06 14.05 23 13.93 22.88C13.8167 22.76 13.76 22.6033 13.76 22.41V16.54C13.76 16.3467 13.8167 16.1933 13.93 16.08C14.05 15.96 14.2067 15.9 14.4 15.9C14.6 15.9 14.7567 15.96 14.87 16.08C14.99 16.1933 15.05 16.3467 15.05 16.54V19.11L18.27 16.09C18.39 15.97 18.5267 15.91 18.68 15.91C18.8333 15.91 18.9667 15.97 19.08 16.09C19.2 16.2033 19.26 16.3367 19.26 16.49C19.26 16.6433 19.1933 16.7833 19.06 16.91L16.37 19.37L19.23 22.03ZM26.0016 22.19C26.0816 22.31 26.1216 22.4267 26.1216 22.54C26.1216 22.6933 26.0582 22.82 25.9316 22.92C25.8116 23.02 25.6682 23.07 25.5016 23.07C25.3949 23.07 25.2916 23.0467 25.1916 23C25.0982 22.9467 25.0182 22.87 24.9516 22.77L23.6216 20.75C23.4882 20.5367 23.3449 20.3867 23.1916 20.3C23.0449 20.2133 22.8516 20.17 22.6116 20.17H21.6316V22.41C21.6316 22.61 21.5749 22.77 21.4616 22.89C21.3482 23.0033 21.1949 23.06 21.0016 23.06C20.8082 23.06 20.6516 23.0033 20.5316 22.89C20.4182 22.77 20.3616 22.61 20.3616 22.41V16.56C20.3616 16.3667 20.4149 16.2167 20.5216 16.11C20.6349 16.0033 20.7882 15.95 20.9816 15.95H23.4816C24.2816 15.95 24.8882 16.13 25.3016 16.49C25.7216 16.8433 25.9316 17.3567 25.9316 18.03C25.9316 18.5767 25.7749 19.0267 25.4616 19.38C25.1549 19.7267 24.7182 19.95 24.1516 20.05C24.3449 20.0967 24.5149 20.18 24.6616 20.3C24.8082 20.42 24.9516 20.5867 25.0916 20.8L26.0016 22.19ZM23.3016 19.18C23.7882 19.18 24.1449 19.09 24.3716 18.91C24.5982 18.7233 24.7116 18.44 24.7116 18.06C24.7116 17.6733 24.5982 17.3933 24.3716 17.22C24.1449 17.04 23.7882 16.95 23.3016 16.95H21.6216V19.18H23.3016Z" fill="#234CAD"/>
</g>
<defs>
<clipPath id="clip0_8810_151">
<rect width="40" height="40" fill="white"/>
</clipPath>
</defs>
</svg>
